<svg width="20" height="19" viewBox="0 0 20 19" fill="none" xmlns="http://www.w3.org/2000/svg">
<path d="M10.3667 16.0682C10.1389 15.9405 9.86108 15.9405 9.63327 16.0682L4.93014 18.7046C4.37178 19.0176 3.70318 18.5323 3.82774 17.9044L4.88316 12.5842C4.93138 12.3412 4.85642 12.09 4.68288 11.9131L1.05785 8.21789C0.623681 7.77533 0.883453 7.02703 1.49845 6.94868L6.47241 6.31503C6.72899 6.28234 6.95061 6.11976 7.05883 5.88484L9.3188 0.978783C9.58672 0.397176 10.4133 0.397175 10.6812 0.978783L12.9412 5.88484C13.0494 6.11976 13.271 6.28234 13.5276 6.31503L18.5015 6.94868C19.1165 7.02703 19.3763 7.77533 18.9422 8.2179L15.3171 11.9131C15.1436 12.09 15.0686 12.3412 15.1168 12.5842L16.1723 17.9044C16.2968 18.5323 15.6282 19.0176 15.0699 18.7046L10.3667 16.0682Z" fill="#FAB633"/>
</svg>
